<svg xmlns="http://www.w3.org/2000/svg" viewBox="0 0 203.42 30"><defs><style>.cls-1{fill:#42a1e8;}.cls-2{fill:#fff;}</style></defs><title>lspkifavFichier 9</title><g id="Calque_2" data-name="Calque 2"><g id="Calque_2-2" data-name="Calque 2"><path class="cls-1" d="M183.11,14.73a2.39,2.39,0,0,1-.71,1.73,2.46,2.46,0,0,1-4.19-1.73V13.67h1.4v1.06a1,1,0,0,0,.31.74,1,1,0,0,0,.74.31,1.06,1.06,0,0,0,.75-.31,1,1,0,0,0,.3-.74V13.67a1.91,1.91,0,0,0-.91-1.75L179.12,11a2.88,2.88,0,0,1-.91-2.38V7.37a2.45,2.45,0,0,1,4.19-1.73,2.38,2.38,0,0,1,.71,1.73v1h-1.4v-1a1,1,0,0,0-1.05-1,1.06,1.06,0,0,0-1,1v1a1.91,1.91,0,0,0,.91,1.75l1.68.95a2.87,2.87,0,0,1,.91,2.38Z"/><path class="cls-1" d="M189.63,14.73a2.46,2.46,0,0,1-2.45,2.45,2.33,2.33,0,0,1-1.73-.72,2.36,2.36,0,0,1-.72-1.73V7.37a2.35,2.35,0,0,1,.72-1.73,2.44,2.44,0,0,1,3.46,0,2.35,2.35,0,0,1,.72,1.73v1h-1.4v-1a1.05,1.05,0,0,0-2.1,0v7.36a1,1,0,0,0,.31.74,1,1,0,0,0,1.48,0,1,1,0,0,0,.31-.74V13.67h1.4Z"/><path class="cls-1" d="M196.45,14.73a2.46,2.46,0,0,1-4.91,0V7.37a2.46,2.46,0,0,1,4.91,0Zm-1.41,0V7.37a1,1,0,0,0-1-1,1,1,0,0,0-.74.31,1,1,0,0,0-.31.74v7.36a1.06,1.06,0,0,0,1.05,1,1,1,0,0,0,.75-.31A1,1,0,0,0,195,14.73Z"/><path class="cls-1" d="M203.42,9.3A2.46,2.46,0,0,1,201,11.75h-1.05v5.43h-1.4V4.92H201a2.46,2.46,0,0,1,2.46,2.45Zm-1.4,0V7.37a1,1,0,0,0-.31-.74,1,1,0,0,0-.75-.31h-1.05v4H201a1,1,0,0,0,.75-.31A1,1,0,0,0,202,9.3Z"/><path class="cls-2" d="M62.78,25.64v2.48h-19V5h4.79V25.64Z"/><path class="cls-2" d="M69.35,6.84a2.49,2.49,0,0,1-.67,1.73,2.56,2.56,0,0,1-3.6,0,2.55,2.55,0,0,1,0-3.47,2.53,2.53,0,0,1,3.58,0A2.49,2.49,0,0,1,69.35,6.84Zm-.16,21.28H64.57V11.29h4.62Z"/><path class="cls-2" d="M73.48,28.12V5H78.1V11h4.12a13.75,13.75,0,0,1,4.14.59,9.13,9.13,0,0,1,3.19,1.72,7.65,7.65,0,0,1,2,2.71,8.64,8.64,0,0,1,.71,3.56,8.64,8.64,0,0,1-.71,3.56,7.65,7.65,0,0,1-2,2.71,9.13,9.13,0,0,1-3.19,1.72,13.75,13.75,0,0,1-4.14.59Zm8.74-2.31a5.9,5.9,0,0,0,2.06-.35,4,4,0,0,0,1.62-1.1A5.5,5.5,0,0,0,87,22.41a9.59,9.59,0,0,0,.38-2.87A9.59,9.59,0,0,0,87,16.67a5.5,5.5,0,0,0-1.06-2,4,4,0,0,0-1.62-1.1,5.9,5.9,0,0,0-2.06-.35H78.1V25.81Z"/><path class="cls-2" d="M108,13.27h-4a4.6,4.6,0,0,0-3.43,1.2,4.89,4.89,0,0,0-1.19,3.59V28.12H94.81V18.06a6.6,6.6,0,0,1,2.13-5.24A9,9,0,0,1,103.06,11h5Z"/><path class="cls-2" d="M115.1,6.84a2.49,2.49,0,0,1-.67,1.73,2.56,2.56,0,0,1-3.6,0,2.55,2.55,0,0,1,0-3.47,2.53,2.53,0,0,1,3.58,0A2.49,2.49,0,0,1,115.1,6.84Zm-.16,21.28h-4.62V11.29h4.62Z"/><path class="cls-2" d="M127.82,10.3a12.64,12.64,0,0,1,2.12.18,14.68,14.68,0,0,1,2,.5,10.48,10.48,0,0,1,1.81.77,7.82,7.82,0,0,1,1.47,1l-1.32,2a11.76,11.76,0,0,0-2.76-1.59,8.11,8.11,0,0,0-3-.56A6.07,6.07,0,0,0,126,13a4.22,4.22,0,0,0-1.72,1.22,6.14,6.14,0,0,0-1.14,2.16,10.89,10.89,0,0,0-.41,3.17,10.89,10.89,0,0,0,.41,3.17,5.86,5.86,0,0,0,1.17,2.16,4.44,4.44,0,0,0,1.83,1.22,7.17,7.17,0,0,0,2.36.38,8.11,8.11,0,0,0,3-.56,11.42,11.42,0,0,0,2.76-1.59l1.32,2a7.82,7.82,0,0,1-1.47,1,10.48,10.48,0,0,1-1.81.77,14.68,14.68,0,0,1-2,.5,12.64,12.64,0,0,1-2.12.18,14,14,0,0,1-4.27-.61,9.17,9.17,0,0,1-3.28-1.78,7.93,7.93,0,0,1-2.1-2.89,10,10,0,0,1-.74-4,10,10,0,0,1,.74-3.94,8.1,8.1,0,0,1,2.06-2.91,9,9,0,0,1,3.17-1.78A12.91,12.91,0,0,1,127.82,10.3Z"/><path class="cls-2" d="M143.33,6.84a2.49,2.49,0,0,1-.67,1.73,2.56,2.56,0,0,1-3.6,0,2.55,2.55,0,0,1,0-3.47,2.53,2.53,0,0,1,3.58,0A2.49,2.49,0,0,1,143.33,6.84Zm-.16,21.28h-4.62V11.29h4.62Z"/><path class="cls-2" d="M157,26.47a8.19,8.19,0,0,0,3-.56,11.56,11.56,0,0,0,2.75-1.59l1.32,2a7.82,7.82,0,0,1-1.47,1,10.16,10.16,0,0,1-1.81.77,14.68,14.68,0,0,1-2,.5,12.61,12.61,0,0,1-2.11.18,14.05,14.05,0,0,1-4.28-.61,9.25,9.25,0,0,1-3.28-1.78,8,8,0,0,1-2.1-2.89,10,10,0,0,1-.74-4A10.37,10.37,0,0,1,147,15.6a7.92,7.92,0,0,1,2-2.91,8.6,8.6,0,0,1,3-1.78,11.58,11.58,0,0,1,3.86-.61,11.71,11.71,0,0,1,3.73.59,8.85,8.85,0,0,1,3,1.74,8.37,8.37,0,0,1,2,2.75,8.48,8.48,0,0,1,.76,3.67v2.3H151.36a5.83,5.83,0,0,0,1.9,3.93A5.91,5.91,0,0,0,157,26.47Zm-1.16-14a4.39,4.39,0,0,0-1.78.36A3.75,3.75,0,0,0,152.66,14a6.64,6.64,0,0,0-1,2.05,11.4,11.4,0,0,0-.41,3h9.24a9.77,9.77,0,0,0-.4-3,6.51,6.51,0,0,0-1-2.06,4.09,4.09,0,0,0-1.49-1.19A4.14,4.14,0,0,0,155.88,12.45Z"/><path class="cls-2" d="M173,28.12h-4.62V5H173Z"/><polygon class="cls-2" points="0 0 18.56 30 20.98 19.08 13.73 7.32 0 0"/><polygon class="cls-1" points="28.82 15.36 20.98 19.08 18.56 30 38.38 20.46 28.82 15.36"/></g></g></svg>