<svg xmlns="http://www.w3.org/2000/svg" viewBox="0 0 1000 300.6"><defs><style>.cls-1{fill:#61669e;}.cls-2{fill:#fff;}</style></defs><g id="Calque_2" data-name="Calque 2"><g id="Calque_1-2" data-name="Calque 1"><path class="cls-1" d="M153,160.47a120.5,120.5,0,0,1-4.69,34.72,78.12,78.12,0,0,1-13.77,26.9A62.12,62.12,0,0,1,112,239.6q-13.45,6.26-31,6.26A83.63,83.63,0,0,1,62.87,244a86.9,86.9,0,0,1-16.26-5.32V300.6H0V83.83Q6.26,82,14.39,80.23t17.05-3q8.91-1.24,18.14-2t17.67-.79q20.34,0,36.29,6.1a71.81,71.81,0,0,1,43.64,44.27A104.16,104.16,0,0,1,153,160.47Zm-47.55,1.25q0-21.58-9.7-34.57t-28.77-13q-6.25,0-11.57.47c-3.55.31-6.47.68-8.76,1.09v84.15A40.22,40.22,0,0,0,58,204.57a55.09,55.09,0,0,0,14.24,1.88Q105.41,206.45,105.41,161.72Z"/><path class="cls-1" d="M248.05,73.82q20.64,0,34.41,4.69T304.51,92a49.63,49.63,0,0,1,11.73,21.27,105.17,105.17,0,0,1,3.44,27.84v97q-10,2.19-27.84,5.16t-43.17,3a137.22,137.22,0,0,1-28.93-2.81,62.77,62.77,0,0,1-22.37-9.23A42.23,42.23,0,0,1,183,217.39q-5-10.32-5-25.33,0-14.38,5.79-24.4a44.42,44.42,0,0,1,15.48-15.95,70.09,70.09,0,0,1,22.21-8.61,125.39,125.39,0,0,1,26-2.65,147.73,147.73,0,0,1,16.11.78,71.8,71.8,0,0,1,11.41,2v-4.38q0-11.88-7.19-19.08t-25-7.19a158.81,158.81,0,0,0-23.46,1.72,100.45,100.45,0,0,0-20,4.85l-5.94-37.54q4.06-1.24,10.16-2.66t13.29-2.5q7.2-1.1,15.18-1.88C237.25,74.09,242.62,73.82,248.05,73.82ZM251.8,210.2q6.87,0,13.14-.31a90.72,90.72,0,0,0,10-.94V173.6q-2.81-.61-8.44-1.25a95.62,95.62,0,0,0-10.32-.62,92.43,92.43,0,0,0-12.35.78,32.17,32.17,0,0,0-10.17,3,17.32,17.32,0,0,0-6.88,5.94,16.47,16.47,0,0,0-2.5,9.39q0,11,7.35,15.17T251.8,210.2Z"/><path class="cls-2" d="M409.14,209.26q12.81,0,18.14-2.5t5.31-9.7q0-5.62-6.88-9.85t-21-9.54a212.21,212.21,0,0,1-19.86-8.45,58.57,58.57,0,0,1-15.17-10.47A42.4,42.4,0,0,1,360,144.2q-3.43-8.44-3.44-20.33,0-23.15,17.21-36.6T421,73.82a151.73,151.73,0,0,1,28.78,2.66,134.15,134.15,0,0,1,21.89,5.79l-8.13,36.28a171,171,0,0,0-17.67-5,96.15,96.15,0,0,0-21.43-2.19q-21.9,0-21.9,12.2a12.52,12.52,0,0,0,.95,5,10.56,10.56,0,0,0,3.75,4.22,52,52,0,0,0,7.66,4.4q4.84,2.37,12.36,5.2a191.63,191.63,0,0,1,25.34,11.2,60.56,60.56,0,0,1,15.79,11.92,36.69,36.69,0,0,1,8.13,14.2,62.83,62.83,0,0,1,2.35,18.1q0,24.34-18.3,36.83t-51.77,12.48q-21.88,0-36.44-3.75t-20.17-6.26L360,199.25a152.65,152.65,0,0,0,24.4,7.35A118.16,118.16,0,0,0,409.14,209.26Z"/><path class="cls-2" d="M512,37.22l46.61-7.5V78.2h56V117h-56v57.86q0,14.72,5.16,23.46t20.8,8.76a88.92,88.92,0,0,0,15.48-1.41,78.7,78.7,0,0,0,14.54-3.9L621.21,238A132.13,132.13,0,0,1,602.44,244q-10.32,2.51-25.34,2.5-19.08,0-31.59-5.16a49.52,49.52,0,0,1-20-14.39A53.39,53.39,0,0,1,515,204.57a132.07,132.07,0,0,1-3-29.09Z"/><path class="cls-2" d="M638.41,161.72q0-21.9,6.73-38.32A82.07,82.07,0,0,1,662.81,96,73.45,73.45,0,0,1,688,79.45a78.88,78.88,0,0,1,29.24-5.63q35,0,55.37,21.43t20.33,63c0,2.72-.11,5.69-.31,8.92s-.42,6.1-.63,8.6H686.27a31,31,0,0,0,13.44,22.84q11.89,8.44,31.92,8.44a135,135,0,0,0,25.17-2.34A95.14,95.14,0,0,0,777,198.94l6.26,37.85a64.51,64.51,0,0,1-10,3.75,131.52,131.52,0,0,1-13.92,3.29q-7.66,1.39-16.42,2.34a163.18,163.18,0,0,1-17.51.94q-22.22,0-38.63-6.57a75.32,75.32,0,0,1-27.22-18,71.48,71.48,0,0,1-15.95-27.06A107.18,107.18,0,0,1,638.41,161.72Zm109.48-17.83a48.65,48.65,0,0,0-2-11.58,29.08,29.08,0,0,0-5.32-10,28.41,28.41,0,0,0-9.08-7.2,29.49,29.49,0,0,0-13.6-2.82A31.3,31.3,0,0,0,704.41,115a27.89,27.89,0,0,0-9.38,7,31.26,31.26,0,0,0-5.79,10.17,65.92,65.92,0,0,0-3,11.73Z"/><path class="cls-2" d="M894.59,245.86q-20.34-.31-33-4.38t-20-11.42a37.79,37.79,0,0,1-10-17.83,96.25,96.25,0,0,1-2.65-23.61V7.51L875.51,0V179.23a60.89,60.89,0,0,0,.94,11.26,19.26,19.26,0,0,0,3.6,8.45,19,19,0,0,0,7.66,5.63q5,2.19,13.45,2.82Z"/><path class="cls-2" d="M993.43,245.86q-20.32-.31-33-4.38t-20-11.42a37.69,37.69,0,0,1-10-17.83,95.72,95.72,0,0,1-2.67-23.61V7.51L974.35,0V179.23a61.76,61.76,0,0,0,.94,11.26,19.26,19.26,0,0,0,3.6,8.45,18.92,18.92,0,0,0,7.66,5.63q5,2.19,13.45,2.82Z"/></g></g></svg>