<svg xmlns="http://www.w3.org/2000/svg" xmlns:xlink="http://www.w3.org/1999/xlink" viewBox="0 0 433.42 84.13"><defs><style>.cls-1{fill:#0a71b3;}.cls-2,.cls-3,.cls-6,.cls-7{fill-rule:evenodd;}.cls-2{fill:url(#linear-gradient);}.cls-3{fill:url(#radial-gradient);}.cls-4{fill:url(#linear-gradient-2);}.cls-5,.cls-6{fill:#fff;}.cls-7{fill:url(#linear-gradient-3);}</style><linearGradient id="linear-gradient" x1="41.72" y1="0.18" x2="41.72" y2="83.61" gradientUnits="userSpaceOnUse"><stop offset="0" stop-color="#35529b"/><stop offset="0.52" stop-color="#4e6dad"/><stop offset="1" stop-color="#4598ce"/></linearGradient><radialGradient id="radial-gradient" cx="29.01" cy="72.53" r="118.91" gradientTransform="translate(12.01 28.32) scale(1.02 1.02)" gradientUnits="userSpaceOnUse"><stop offset="0.24" stop-color="#fff"/><stop offset="0.39" stop-color="#83ceea"/><stop offset="0.5" stop-color="#7892c5"/><stop offset="0.63" stop-color="#3d589f"/><stop offset="0.88" stop-color="#1e2979"/></radialGradient><linearGradient id="linear-gradient-2" x1="-244.5" y1="2.34" x2="-241.91" y2="39.37" gradientTransform="matrix(-1, 0, 0, 1, -200.24, 0)" gradientUnits="userSpaceOnUse"><stop offset="0" stop-color="#fff"/><stop offset="1" stop-color="#5679b5"/></linearGradient><linearGradient id="linear-gradient-3" x1="39.9" y1="1.61" x2="42.17" y2="34.07" gradientUnits="userSpaceOnUse"><stop offset="0.7" stop-color="#fff"/><stop offset="1" stop-color="#b8def3"/></linearGradient></defs><title>versaeFichier 10</title><g id="Calque_2" data-name="Calque 2"><g id="Calque_1-2" data-name="Calque 1"><path class="cls-1" d="M193.24,83.42V78.15c-4.1,4.1-8,5.86-15,5.86s-12-1.76-15.58-5.39a19.57,19.57,0,0,1-5-13.71c0-9.72,6.68-17.69,20.86-17.69h14.41v-3c0-6.68-3.28-9.61-11.37-9.61-5.85,0-8.55,1.41-11.71,5l-9.73-9.49c6-6.56,11.84-8.43,22-8.43,17.11,0,26,7.26,26,21.55V83.42Zm-.35-25.77H180.82c-5.5,0-8.55,2.57-8.55,6.91s2.81,7,8.79,7c4.21,0,6.91-.35,9.6-2.93,1.64-1.52,2.23-4,2.23-7.73Z"/><path class="cls-1" d="M241.61,84.13c-9.6,0-18.27-1.06-26-8.79l10-10c5,5,11.6,5.74,16.29,5.74,5.27,0,10.78-1.76,10.78-6.33,0-3-1.64-5.15-6.45-5.62l-9.6-.94c-11-1-17.81-5.86-17.81-17.1,0-12.66,11.13-19.45,23.55-19.45,9.49,0,17.46,1.64,23.31,7.14l-9.37,9.49c-3.52-3.16-8.9-4.1-14.18-4.1-6.09,0-8.67,2.81-8.67,5.86,0,2.23.94,4.81,6.33,5.27l9.61.94c12.07,1.17,18.16,7.62,18.16,17.93C267.51,77.68,256,84.13,241.61,84.13Z"/><path class="cls-1" d="M294.67,83.42C282.25,83.42,277,74.64,277,66V6.09h15.23V24.14H303v11.6H292.21V65c0,3.51,1.64,5.5,5.27,5.5H303V83.42Z"/><path class="cls-1" d="M324.85,57.65c0,7.85,4.81,13.59,13.36,13.59,6.68,0,10-1.88,13.83-5.74l9.25,9c-6.21,6.21-12.18,9.61-23.2,9.61-14.41,0-28.23-6.57-28.23-31.29,0-19.92,10.78-31.16,26.59-31.16,17,0,26.6,12.42,26.6,29.17v6.8Zm21.8-17a11.37,11.37,0,0,0-20.39,0,16.78,16.78,0,0,0-1.41,6.56h23.2A16.78,16.78,0,0,0,346.65,40.66Z"/><path class="cls-1" d="M390.8,83.42C378.26,83.42,373,74.64,373,66V0h15.23V65c0,3.63,1.52,5.5,5.39,5.5h5.86V83.42Z"/><path class="cls-1" d="M424.75,83.42c-12.54,0-17.81-8.78-17.81-17.45V0h15.23V65c0,3.63,1.52,5.5,5.39,5.5h5.86V83.42Z"/><path class="cls-1" d="M129.25,0H96.91V14.61l31.52-.08c7.38,0,12.07,4.69,12.07,11.48s-4.69,11.37-12.07,11.37l-31.52,0v46H113.2V52h16c17.22,0,27.53-11.83,27.53-26S146.47,0,129.25,0Z"/><path class="cls-2" d="M0,42A41.72,41.72,0,1,1,41.65,83.61,41.78,41.78,0,0,1,0,42Z"/><path class="cls-3" d="M1.66,41.56a40.05,40.05,0,1,1,40,39.82A40,40,0,0,1,1.66,41.56Z"/><path class="cls-4" d="M43.35,5.28c25.3,0,32.71,23.27,33.74,27.07,0,.39.07.77.07,1.17,0,4.63-4.21,6.26-8.17,4.57a70.55,70.55,0,0,0-26.12-5.36H41.29a70.55,70.55,0,0,0-26.12,5.36C11.22,39.78,7,38.15,7,33.52c0-.4.06-.78.07-1.17,1-3.8,8.45-27.09,33.74-27.07Z"/><path class="cls-5" d="M26.81,6.25c-.52.23-1,.46-1.55.71A61.93,61.93,0,0,1,42.52,50a62,62,0,0,1-8.14,30.77q.85.15,1.71.27a63.47,63.47,0,0,0,8-31A63.54,63.54,0,0,0,26.81,6.25Z"/><path class="cls-5" d="M50.81,4.3C50,4.12,49.26,4,48.47,3.83A63.91,63.91,0,0,0,20.71,75.49q1,.62,2,1.17A62.24,62.24,0,0,1,50.81,4.3Z"/><path class="cls-5" d="M32.84,22.52a62,62,0,0,1,2.9-18.79c-.61.09-1.2.2-1.8.31A63.93,63.93,0,0,0,61,76.46c.53-.29,1.07-.6,1.59-.92A62.15,62.15,0,0,1,32.84,22.52Z"/><path class="cls-5" d="M61.09,57.23A62.1,62.1,0,0,1,10.17,30.74l-1,1.31a64,64,0,0,0,7,8.28l.54.54a63.63,63.63,0,0,0,44.39,18,64,64,0,0,0,17.79-2.5c.25-.63.49-1.26.71-1.91A62.06,62.06,0,0,1,61.09,57.23Z"/><path class="cls-5" d="M31,4.77c-.52.15-1,.31-1.55.48a63.85,63.85,0,0,0,50.17,49.2c.18-.51.35-1,.5-1.55A62.23,62.23,0,0,1,31,4.77Z"/><path class="cls-5" d="M7.53,35.3a62.58,62.58,0,0,1,47.1-21.67,67.71,67.71,0,0,1,12,1.09c-.69-.69-1.53-1.35-2.3-2a68.88,68.88,0,0,0-9.7-.71A63.62,63.62,0,0,0,7,33.39s0,.08,0,.13A3.67,3.67,0,0,0,7.53,35.3Z"/><path class="cls-5" d="M70.92,20A62.18,62.18,0,0,1,12.65,60.46a63.62,63.62,0,0,1-6.37-.32c.3.58.62,1.15,1,1.71,1.79.15,3.59.22,5.42.22A63.79,63.79,0,0,0,72,21.63C71.68,21.08,71.31,20.53,70.92,20Z"/><path class="cls-5" d="M72.63,20.05s.28-.76.42-1.2c-.35-.57-.73-1.12-1.12-1.67a11.22,11.22,0,0,1-.4,1.12c-.19.57-.4,1.12-.61,1.68.39.55.76,1.1,1.1,1.65C72.23,21.1,72.44,20.58,72.63,20.05Z"/><path class="cls-6" d="M15.07,42.7a4.85,4.85,0,1,1,4.84,4.84A4.85,4.85,0,0,1,15.07,42.7Z"/><path class="cls-6" d="M28,16.86a4.85,4.85,0,1,1,4.84,4.84A4.85,4.85,0,0,1,28,16.86Z"/><path class="cls-6" d="M37.68,54a4.85,4.85,0,1,1,4.84,4.84A4.84,4.84,0,0,1,37.68,54Z"/><path class="cls-6" d="M13.45,60.46A4.85,4.85,0,1,1,18.3,65.3,4.84,4.84,0,0,1,13.45,60.46Z"/><path class="cls-6" d="M6.92,32c.55-2.61,2.85-4.34,5.13-3.86s3.68,3,3.13,5.61S12.32,38.05,10,37.57,6.36,34.57,6.92,32Z"/><path class="cls-5" d="M67,12.89c-2,1.14-2.64,3.95-1.34,6.29s4,3.32,6,2.18A3.77,3.77,0,0,0,73,20.23C73.13,20,67.3,12.73,67,12.89Z"/><path class="cls-7" d="M42.13,2.62C61.21,2.62,77.05,16.07,77,32.76c0,0-6.32-26.59-33.86-26.56H41.33C13.79,6.17,7.08,32.86,7.08,32.86c0-16.69,15.47-30.24,34.54-30.24Z"/></g></g></svg>