<svg xmlns="http://www.w3.org/2000/svg" xmlns:xlink="http://www.w3.org/1999/xlink" viewBox="0 0 47.15 47.15"><defs><style>.cls-1,.cls-4,.cls-5{fill:#fff;}.cls-1,.cls-2,.cls-5,.cls-6{fill-rule:evenodd;}.cls-1{opacity:0.9;}.cls-2{fill:url(#Dégradé_sans_nom_64);}.cls-3{fill:url(#Dégradé_sans_nom_39);}.cls-6{fill:url(#Dégradé_sans_nom_41);}</style><radialGradient id="Dégradé_sans_nom_64" cx="14.14" cy="54.4" r="67.85" gradientTransform="translate(9.1 2.79) scale(1.02 1.02)" gradientUnits="userSpaceOnUse"><stop offset="0.24" stop-color="#fff" stop-opacity="0.8"/><stop offset="0.39" stop-color="#fff" stop-opacity="0.35"/><stop offset="0.5" stop-color="#fff" stop-opacity="0.25"/><stop offset="0.63" stop-color="#fff" stop-opacity="0.35"/><stop offset="0.88" stop-color="#fff" stop-opacity="0.3"/></radialGradient><linearGradient id="Dégradé_sans_nom_39" x1="20.56" y1="1.16" x2="22.04" y2="22.29" gradientTransform="matrix(-1, 0, 0, 1, 45.74, 0)" gradientUnits="userSpaceOnUse"><stop offset="0" stop-color="#fff" stop-opacity="0.96"/><stop offset="1" stop-color="#fff" stop-opacity="0.25"/></linearGradient><linearGradient id="Dégradé_sans_nom_41" x1="22.69" y1="0.74" x2="23.98" y2="19.26" gradientUnits="userSpaceOnUse"><stop offset="0.7" stop-color="#fff"/><stop offset="1" stop-color="#fff"/><stop offset="1" stop-color="#fff" stop-opacity="0.8"/></linearGradient></defs><title>versaeFichier 1</title><g id="Calque_2" data-name="Calque 2"><g id="Calque_1-2" data-name="Calque 1"><path class="cls-1" d="M23.61,0A23.58,23.58,0,1,0,47.15,23.61,23.62,23.62,0,0,0,23.61,0Zm-.07,46.27A22.7,22.7,0,1,1,46.27,23.61,22.65,22.65,0,0,1,23.54,46.27Z"/><path class="cls-2" d="M.72,23.6A22.85,22.85,0,1,1,23.54,46.33,22.84,22.84,0,0,1,.72,23.6Z"/><path class="cls-3" d="M24.66,2.84c14.43,0,18.66,13.27,19.25,15.44,0,.22,0,.44,0,.67,0,2.64-2.4,3.57-4.66,2.61a40,40,0,0,0-14.9-3.06h-.91a40,40,0,0,0-14.9,3.06c-2.26,1-4.66,0-4.66-2.61,0-.23,0-.45,0-.67C4.55,16.11,8.78,2.83,23.21,2.84Z"/><path class="cls-4" d="M15.22,3.39c-.3.13-.59.26-.88.41a35.35,35.35,0,0,1,9.85,24.53,35.34,35.34,0,0,1-4.65,17.55l1,.16a36.28,36.28,0,0,0,4.59-17.71A36.29,36.29,0,0,0,15.22,3.39Z"/><path class="cls-4" d="M28.91,2.28c-.44-.11-.88-.2-1.33-.27A36.5,36.5,0,0,0,11.74,42.9c.38.23.77.45,1.16.66a35.56,35.56,0,0,1,16-41.28Z"/><path class="cls-4" d="M18.66,12.67A35.46,35.46,0,0,1,20.31,2l-1,.18A36.45,36.45,0,0,0,34.7,43.45c.31-.17.61-.34.91-.53A35.46,35.46,0,0,1,18.66,12.67Z"/><path class="cls-4" d="M34.78,32.48a35.44,35.44,0,0,1-29-15.12l-.6.75a37.07,37.07,0,0,0,4,4.73l.31.3A36.26,36.26,0,0,0,34.78,33.4,36.55,36.55,0,0,0,44.93,32c.14-.36.28-.72.41-1.09A35.43,35.43,0,0,1,34.78,32.48Z"/><path class="cls-4" d="M17.59,2.54l-.88.28A36.41,36.41,0,0,0,45.33,30.89c.1-.29.2-.58.29-.88A35.5,35.5,0,0,1,17.59,2.54Z"/><path class="cls-4" d="M4.22,20A35.73,35.73,0,0,1,31.1,7.6a38.58,38.58,0,0,1,6.84.62c-.39-.39-.87-.77-1.31-1.14a38.91,38.91,0,0,0-5.53-.4A36.31,36.31,0,0,0,3.92,18.87V19A2.13,2.13,0,0,0,4.22,20Z"/><path class="cls-4" d="M40.39,11.22A35.48,35.48,0,0,1,7.14,34.32a36.16,36.16,0,0,1-3.63-.18c.17.33.35.65.54,1,1,.09,2.05.13,3.09.13A36.4,36.4,0,0,0,41,12.16C40.82,11.85,40.61,11.54,40.39,11.22Z"/><path class="cls-4" d="M41.37,11.26s.16-.43.24-.68c-.2-.33-.42-.64-.64-.95-.1.27-.23.67-.23.64-.11.32-.23.64-.35,1,.22.32.43.63.63.94C41.14,11.86,41.26,11.56,41.37,11.26Z"/><path class="cls-5" d="M8.52,24.19A2.77,2.77,0,1,1,11.29,27,2.77,2.77,0,0,1,8.52,24.19Z"/><path class="cls-5" d="M15.89,9.44a2.77,2.77,0,1,1,2.77,2.77A2.77,2.77,0,0,1,15.89,9.44Z"/><path class="cls-5" d="M21.42,30.64a2.77,2.77,0,1,1,2.77,2.76A2.77,2.77,0,0,1,21.42,30.64Z"/><path class="cls-5" d="M7.6,34.32a2.77,2.77,0,1,1,2.77,2.76A2.76,2.76,0,0,1,7.6,34.32Z"/><path class="cls-5" d="M3.87,18.06A2.61,2.61,0,0,1,6.8,15.85a2.6,2.6,0,0,1,1.78,3.2,2.59,2.59,0,0,1-2.93,2.21A2.61,2.61,0,0,1,3.87,18.06Z"/><path class="cls-4" d="M38.16,7.18a2.6,2.6,0,0,0-.76,3.59A2.59,2.59,0,0,0,40.84,12a2.22,2.22,0,0,0,.72-.64A28.69,28.69,0,0,0,38.16,7.18Z"/><path class="cls-6" d="M24,1.32c10.89,0,19.93,7.67,19.9,17.2,0,0-3.6-15.17-19.31-15.16H23.5C7.79,3.35,4,18.57,4,18.57,4,9.05,12.79,1.32,23.67,1.32Z"/></g></g></svg>